<svg id="visual" viewBox="0 0 2000 1000" width="2000" height="1000" xmlns="http://www.w3.org/2000/svg" xmlns:xlink="http://www.w3.org/1999/xlink" version="1.1"><rect x="0" y="0" width="2000" height="1000" fill="#FFFFFF"></rect><path d="M0 168L55.5 198.3C111 228.7 222 289.3 333.2 283.8C444.3 278.3 555.7 206.7 666.8 172.7C778 138.7 889 142.3 1000 166C1111 189.7 1222 233.3 1333.2 249.3C1444.3 265.3 1555.7 253.7 1666.8 237.2C1778 220.7 1889 199.3 1944.5 188.7L2000 178L2000 0L1944.5 0C1889 0 1778 0 1666.8 0C1555.7 0 1444.3 0 1333.2 0C1222 0 1111 0 1000 0C889 0 778 0 666.8 0C555.7 0 444.3 0 333.2 0C222 0 111 0 55.5 0L0 0Z" fill="#92caf8" stroke-linecap="round" stroke-linejoin="miter"></path></svg>