<svg id="visual" viewBox="0 0 2000 2000" width="2000" height="2000" xmlns="http://www.w3.org/2000/svg" xmlns:xlink="http://www.w3.org/1999/xlink" version="1.1"><rect x="0" y="0" width="2000" height="2000" fill="#FFFFFF"></rect><path d="M0 337L55.5 397.7C111 458.3 222 579.7 333.2 568.8C444.3 558 555.7 415 666.8 346.8C778 278.7 889 285.3 1000 332.3C1111 379.3 1222 466.7 1333.2 499C1444.3 531.3 1555.7 508.7 1666.8 475.8C1778 443 1889 400 1944.5 378.5L2000 357L2000 0L1944.5 0C1889 0 1778 0 1666.8 0C1555.7 0 1444.3 0 1333.2 0C1222 0 1111 0 1000 0C889 0 778 0 666.8 0C555.7 0 444.3 0 333.2 0C222 0 111 0 55.5 0L0 0Z" fill="#92caf8" stroke-linecap="round" stroke-linejoin="miter"></path></svg>