<svg id="visual" viewBox="0 0 2000 1000" width="2000" height="1000" xmlns="http://www.w3.org/2000/svg" xmlns:xlink="http://www.w3.org/1999/xlink" version="1.1"><rect x="0" y="0" width="2000" height="1000" fill="#FFFFFF"></rect><path d="M0 381L83.3 351.2C166.7 321.3 333.3 261.7 500 250.5C666.7 239.3 833.3 276.7 1000 261C1166.7 245.3 1333.3 176.7 1500 173.7C1666.7 170.7 1833.3 233.3 1916.7 264.7L2000 296L2000 0L1916.7 0C1833.3 0 1666.7 0 1500 0C1333.3 0 1166.7 0 1000 0C833.3 0 666.7 0 500 0C333.3 0 166.7 0 83.3 0L0 0Z" fill="#cae7ff" stroke-linecap="round" stroke-linejoin="miter"></path></svg>